<svg xmlns="http://www.w3.org/2000/svg" viewBox="0 0 40 40"><defs><style>.cls-1{fill:none;}.cls-2{fill:#767b7c;}</style></defs><title>MacyAsset 2</title><g id="Layer_2" data-name="Layer 2"><g id="Layer_2-2" data-name="Layer 2"><rect class="cls-1" width="40" height="40"/><path class="cls-2" d="M33,30.34l-7.19-3a22.91,22.91,0,0,0,5.53-1.68,2.05,2.05,0,0,0,1.18-1.87C32.42,13.93,31,.82,20,.82S7.58,13.93,7.51,23.79a2,2,0,0,0,1.18,1.86,22.47,22.47,0,0,0,5.53,1.69L7,30.34a3.29,3.29,0,0,0-2,3v3.34a2.46,2.46,0,0,0,2.46,2.46H32.54A2.46,2.46,0,0,0,35,36.72V33.38A3.29,3.29,0,0,0,33,30.34Zm-2-6.53a.46.46,0,0,1-.27.42A21.84,21.84,0,0,1,25,25.89V24.83l1.39-.78a4.12,4.12,0,0,0,2.11-3.23v0h.73a2.44,2.44,0,0,0,1.62-.61C30.88,21.32,30.91,22.53,30.92,23.81ZM20,23.29A14.25,14.25,0,0,0,26.39,22a2.46,2.46,0,0,1-.79.68L21.24,25.1a2.55,2.55,0,0,1-2.48,0L14.4,22.68a2.57,2.57,0,0,1-1.31-2L12.49,14c2.19-.25,8.41-1.09,12.17-3a6.35,6.35,0,0,0,2.87,2.77L27,19.75c-.64.56-2.67,2-7,2a.79.79,0,0,0-.78.79A.78.78,0,0,0,20,23.29Zm8.61-4.07.32-3.45h.27a.89.89,0,0,1,.89.89v1.67a.89.89,0,0,1-.89.89ZM11.35,8.56C13.12,4.41,16,2.39,20,2.39s6.88,2,8.65,6.17a25.3,25.3,0,0,1,1.59,5.87,2.4,2.4,0,0,0-1-.23h-.13l.07-.82a.76.76,0,0,0-.53-.81,5,5,0,0,1-2.85-2.85.76.76,0,0,0-.47-.49.81.81,0,0,0-.68.06c-4,2.39-12.95,3.23-13,3.24a.78.78,0,0,0-.71.85l.07.82H10.8a2.4,2.4,0,0,0-1,.23A25.3,25.3,0,0,1,11.35,8.56Zm0,10.66H10.8a.89.89,0,0,1-.89-.89V16.66a.89.89,0,0,1,.89-.89h.27Zm-2,5a.46.46,0,0,1-.27-.42c0-1.28,0-2.49.1-3.64a2.44,2.44,0,0,0,1.62.61h.73v0a4.12,4.12,0,0,0,2.11,3.23l1.39.78v1.06A21.84,21.84,0,0,1,9.35,24.23Zm5.74,4.45a2.44,2.44,0,0,0,1.51-2.27V25.7l1.39.77a4.08,4.08,0,0,0,4,0l1.39-.77v.71a2.44,2.44,0,0,0,1.51,2.27l.89.37A14,14,0,0,1,20,33.4a13.82,13.82,0,0,1-5.8-4.35ZM10,37.61H7.46a.89.89,0,0,1-.89-.89V33.38a1.8,1.8,0,0,1,.11-.62l2.69,2.15A1.73,1.73,0,0,1,10,36.26Zm18.39-1.35v1.35H11.59V36.26a3.29,3.29,0,0,0-1.24-2.57l-2.49-2,4.83-2h0c3.47,4.34,7,5.25,7.11,5.29L20,35l.19,0c.15,0,3.64-.95,7.11-5.29h0l4.83,2-2.49,2A3.29,3.29,0,0,0,28.41,36.26Zm5,.46a.89.89,0,0,1-.89.89H30V36.26a1.73,1.73,0,0,1,.65-1.35l2.69-2.15a1.8,1.8,0,0,1,.11.62Z"/></g></g></svg>