<svg xmlns="http://www.w3.org/2000/svg" viewBox="0 0 32 32"><defs><style>.cls-1{fill:none;}.cls-2{fill:#767b7c;}</style></defs><title>MacyAsset 4</title><g id="Layer_2" data-name="Layer 2"><g id="Layer_2-2" data-name="Layer 2"><rect class="cls-1" width="32" height="32"/><path class="cls-2" d="M23.64,23.19c1.61.18,3,.46,3,.46-3.21-1.76-3.13-8.09-3.13-8.09C24.09,3.3,16,4,16,4V4S7.91,3.3,8.47,15.56c0,0,0,.34,0,.87a4.11,4.11,0,0,1-.54-.66,8.19,8.19,0,0,0,.29-2.22,7.7,7.7,0,0,0-.37-2.47c.94-4.35,4.3-7.58,8.29-7.58s7.34,3.23,8.28,7.58A8,8,0,0,0,24,13.55c0,2.1.68,3.81,1.53,3.81s1.53-1.71,1.53-3.81c0-1.8-.5-3.3-1.17-3.71-1.36-4.71-5.24-8.12-9.81-8.12S7.66,5.13,6.29,9.84c-.67.41-1.16,1.91-1.16,3.71,0,2.1.68,3.81,1.53,3.81A.9.9,0,0,0,7.33,17a5.14,5.14,0,0,0,1,.88c-.28,2-1,4.73-3,5.8,0,0,.86-.06,2-.08A9.38,9.38,0,0,0,2,30.28H30A9.39,9.39,0,0,0,23.64,23.19Zm-5.47,2.46L16,29.17l-2.17-3.52a4.93,4.93,0,0,1-3.28-2c1.27.11,2.35.34,2.63.8L12,21.79a5.71,5.71,0,0,0,4,1.81,5.69,5.69,0,0,0,3.94-1.73l-.83,1.73c.27-.46,1.32-.59,2.55-.55C21.47,24.22,20.08,25.21,18.17,25.65Zm4-11.28a11.69,11.69,0,0,1-1.16,4.37C19.92,21,18.08,22.5,16,22.5S12.24,21.15,11.1,19a8.69,8.69,0,0,0,1.79.19c.2,0,.4,0,.6,0a1.19,1.19,0,0,0,2.13-.91A1.19,1.19,0,0,0,13.36,18a7.45,7.45,0,0,1-2.89-.38,12.14,12.14,0,0,1-.67-3.05,24.92,24.92,0,0,0,4-1,25.38,25.38,0,0,0,6-3.29l.05,0s.06.08.15.23c.28.49.9,1.95-.26,2.62l2.11.27h0l.39.08A6.82,6.82,0,0,1,22.22,14.37Z"/></g></g></svg>