<svg xmlns="http://www.w3.org/2000/svg" viewBox="0 0 32 32"><defs><style>.cls-1{fill:none;}.cls-2{fill:#767b7c;}</style></defs><title>userAsset 2</title><g id="Layer_2" data-name="Layer 2"><g id="Layer_3" data-name="Layer 3"><rect class="cls-1" width="32" height="32"/><path class="cls-2" d="M29.88,26.5a6.24,6.24,0,0,0-5.14-4.43,17.1,17.1,0,0,1-3.87-1.14,15.14,15.14,0,0,1,0-1.84L21,19l0,0A8.55,8.55,0,0,0,22.43,16a4.16,4.16,0,0,0,1.47-2.6,3.16,3.16,0,0,0-.27-2.68l0-.06c.54-5.36-2.9-8.08-4.92-8.78h-.05a7.85,7.85,0,0,0-2.11-.34h-.07l-.46,0-.45,0a7.61,7.61,0,0,0-2.18.35h0c-2,.7-5.46,3.42-4.92,8.78a.21.21,0,0,0,0,.06,3.16,3.16,0,0,0-.27,2.68A4.16,4.16,0,0,0,9.54,16,8.52,8.52,0,0,0,11,18.93h0v0c0,.06.08.12.13.19a12,12,0,0,1,0,1.79,17.15,17.15,0,0,1-3.86,1.14A6.24,6.24,0,0,0,2.12,26.5a1.82,1.82,0,0,0,.21,1.69c1.3,1.88,8.15,2.28,13.67,2.28s12.37-.4,13.67-2.28A1.82,1.82,0,0,0,29.88,26.5ZM10.76,15h0c-.17,0-.89-.11-1.31-1.93-.33-1.41,0-1.63.27-1.63a.53.53,0,0,1,.21,0,.13.13,0,0,0,0-.06l.06.06.57,1.77s-.38-5,2.3-5.36A13.56,13.56,0,0,0,19.2,11.5s-.77-1.4-1.41-2.67c0,0,2.05,2.29,3.83,2.67a6.9,6.9,0,0,0,.58-.91c0,.3-.07.6-.13.93a.47.47,0,0,1,.21,0c.25,0,.6.22.27,1.63C22.13,14.92,21.41,15,21.24,15h0a6.53,6.53,0,0,1-1.65,3.53s0,0,0,0a5,5,0,0,1-3.7,1.8,5.27,5.27,0,0,1-3.38-1.76v0A6.6,6.6,0,0,1,10.76,15ZM16,24.82a7.79,7.79,0,0,1-5.46-2.17c.94-.31,1.72-.68,1.86-1a3.75,3.75,0,0,0,.12-1.15,5.91,5.91,0,0,0,3.25,1.26H16a5.77,5.77,0,0,0,3.49-1.3,4,4,0,0,0,.12,1.18c.14.36.92.73,1.86,1A7.79,7.79,0,0,1,16,24.82Z"/></g></g></svg>