<svg xmlns="http://www.w3.org/2000/svg" viewBox="0 0 40 40"><defs><style>.cls-1{fill:none;}.cls-2{fill:#767b7c;}</style></defs><title>UserAsset 3</title><g id="Layer_2" data-name="Layer 2"><g id="Layer_3" data-name="Layer 3"><rect class="cls-1" width="40" height="40"/><path class="cls-2" d="M19.86,21.46h.25a7.19,7.19,0,0,0,5.5-2.38c3-3.38,2.5-9.17,2.44-9.73-.19-4.15-2.16-6.13-3.78-7.06a8.53,8.53,0,0,0-4.19-1.1H20a8.64,8.64,0,0,0-4.19,1.07c-1.64.92-3.63,2.91-3.83,7.09,0,.56-.55,6.35,2.45,9.73A7.13,7.13,0,0,0,19.86,21.46ZM14,9.55s0-.05,0-.06c.26-5.59,4.22-6.19,5.92-6.19H20c2.1.05,5.67.9,5.92,6.19v.06s.56,5.35-1.92,8.14a5.11,5.11,0,0,1-4,1.67H20a5.08,5.08,0,0,1-4-1.67C13.48,14.92,14,9.6,14,9.55Z"/><path class="cls-2" d="M36,31.07v0c0-.06,0-.12,0-.19-.05-1.55-.15-5.15-3.53-6.31l-.08,0a22.72,22.72,0,0,1-6.46-2.94,1.05,1.05,0,1,0-1.21,1.72,24.35,24.35,0,0,0,7.11,3.25c1.82.64,2,2.58,2.07,4.36a1.15,1.15,0,0,0,0,.19,14.42,14.42,0,0,1-.16,2.41A28.65,28.65,0,0,1,20,36.71a28.81,28.81,0,0,1-13.74-3.2,13.32,13.32,0,0,1-.16-2.4c0-.07,0-.13,0-.2,0-1.78.25-3.72,2.07-4.36a24.65,24.65,0,0,0,7.11-3.25,1.05,1.05,0,1,0-1.21-1.72,22.1,22.1,0,0,1-6.46,2.94l-.08,0C4.16,25.71,4.06,29.31,4,30.85A1.15,1.15,0,0,1,4,31v0a12,12,0,0,0,.4,3.53,1.07,1.07,0,0,0,.4.49c.24.15,5.84,3.72,15.21,3.72s15-3.58,15.21-3.72a1,1,0,0,0,.4-.49A12.53,12.53,0,0,0,36,31.07Z"/></g></g></svg>